<svg xmlns="http://www.w3.org/2000/svg" fill='#fff' height="64" width="64" xmlns:v="https://vecta.io/nano"><path d="M38.501 7.69c-10.944 0-19.815 8.871-19.815 19.816 0 10.859 8.736 19.673 19.562 19.809v8.43l13.54-13.539c4.01-3.626 6.53-8.869 6.53-14.7C58.316 16.561 49.444 7.69 38.501 7.69zM21.882 46.654v-2.405l-1.975-.024c-5.638-.07-10.224-4.714-10.224-10.353 0-4.645 3.073-8.585 7.292-9.894a21.61 21.61 0 0 1 1.179-4.325c-7.026.927-12.471 6.942-12.471 14.218 0 7.146 5.315 13.141 12.199 14.19v8.248l9.871-9.871a22.03 22.03 0 0 1-3.323-2.332l-2.548 2.548z"/></svg>